<svg width="34" height="34" viewBox="0 0 34 34" fill="none" xmlns="http://www.w3.org/2000/svg">
<g id="Shape">
<path id="Vector" fill-rule="evenodd" clip-rule="evenodd" d="M2.97516 17.0001C2.97516 9.2543 9.25437 2.9751 17.0002 2.9751C24.746 2.9751 31.0252 9.2543 31.0252 17.0001C31.0252 24.7459 24.746 31.0251 17.0002 31.0251C9.25437 31.0251 2.97516 24.7459 2.97516 17.0001ZM18.4168 23.021C18.4168 23.8034 17.7826 24.4376 17.0002 24.4376C16.2177 24.4376 15.5835 23.8034 15.5835 23.021C15.5835 22.2386 16.2177 21.6043 17.0002 21.6043C17.7826 21.6043 18.4168 22.2386 18.4168 23.021ZM15.7251 9.56263V19.4793H18.2751V9.56263H15.7251Z" fill="#97C4EF"/>
</g>
</svg>
