<svg width="153" height="30" viewBox="0 0 153 30" fill="none" xmlns="http://www.w3.org/2000/svg">
<g id="Frame 1948755169">
<g id="Group 2085663235">
<g id="ComuniCue">
<path d="M29.8089 22.3192C28.9902 23.0095 28.0733 23.5392 27.0581 23.9084C26.0429 24.2777 24.9909 24.4623 23.902 24.4623C23.067 24.4623 22.2606 24.3539 21.4828 24.1372C20.7132 23.9285 19.9887 23.6315 19.3092 23.2463C18.6379 22.853 18.0239 22.3834 17.4671 21.8376C16.9104 21.2919 16.4315 20.6899 16.0304 20.0317C15.6374 19.3655 15.3304 18.6552 15.1093 17.9007C14.8965 17.1382 14.79 16.3476 14.79 15.5289C14.79 14.7102 14.8965 13.9196 15.1093 13.1571C15.3304 12.3946 15.6374 11.6843 16.0304 11.0261C16.4315 10.36 16.9104 9.75397 17.4671 9.20818C18.0239 8.66238 18.6379 8.19686 19.3092 7.81159C19.9887 7.4183 20.7132 7.11731 21.4828 6.90863C22.2606 6.69191 23.067 6.58356 23.902 6.58356C24.9909 6.58356 26.0429 6.76816 27.0581 7.13738C28.0733 7.49856 28.9902 8.0283 29.8089 8.72659L27.9423 11.7365C27.4265 11.1907 26.8166 10.7733 26.1125 10.4844C25.4084 10.1874 24.6716 10.0389 23.902 10.0389C23.1243 10.0389 22.3957 10.1834 21.7161 10.4723C21.0366 10.7613 20.4431 11.1546 19.9355 11.6522C19.4279 12.1418 19.0268 12.7237 18.732 13.3979C18.4373 14.0641 18.2899 14.7745 18.2899 15.5289C18.2899 16.2834 18.4373 16.9937 18.732 17.6599C19.0268 18.3181 19.4279 18.896 19.9355 19.3936C20.4431 19.8913 21.0366 20.2845 21.7161 20.5735C22.3957 20.8624 23.1243 21.0069 23.902 21.0069C24.6716 21.0069 25.4084 20.8624 26.1125 20.5735C26.8166 20.2765 27.4265 19.8551 27.9423 19.3093L29.8089 22.3192Z" fill="#519CE4"/>
<path d="M43.4955 17.5275C43.4955 18.4907 43.3195 19.3896 42.9675 20.2243C42.6154 21.0511 42.1365 21.7694 41.5307 22.3794C40.9249 22.9814 40.2126 23.459 39.3939 23.8121C38.5834 24.1573 37.7115 24.3298 36.7782 24.3298C35.8531 24.3298 34.9812 24.1573 34.1625 23.8121C33.352 23.459 32.6397 22.9814 32.0257 22.3794C31.4199 21.7694 30.941 21.0511 30.5889 20.2243C30.2369 19.3896 30.0609 18.4907 30.0609 17.5275C30.0609 16.5483 30.2369 15.6413 30.5889 14.8066C30.941 13.9718 31.4199 13.2535 32.0257 12.6515C32.6397 12.0415 33.352 11.5639 34.1625 11.2188C34.9812 10.8736 35.8531 10.7011 36.7782 10.7011C37.7115 10.7011 38.5834 10.8656 39.3939 11.1947C40.2126 11.5158 40.9249 11.9773 41.5307 12.5792C42.1365 13.1732 42.6154 13.8916 42.9675 14.7343C43.3195 15.5691 43.4955 16.5001 43.4955 17.5275ZM40.1185 17.5275C40.1185 16.9978 40.0284 16.5202 39.8483 16.0948C39.6764 15.6614 39.4389 15.2922 39.136 14.9872C38.8331 14.6741 38.477 14.4373 38.0676 14.2768C37.6665 14.1083 37.2367 14.024 36.7782 14.024C36.3197 14.024 35.8858 14.1083 35.4765 14.2768C35.0753 14.4373 34.7233 14.6741 34.4204 14.9872C34.1257 15.2922 33.8923 15.6614 33.7204 16.0948C33.5485 16.5202 33.4625 16.9978 33.4625 17.5275C33.4625 18.0251 33.5485 18.4866 33.7204 18.912C33.8923 19.3374 34.1257 19.7066 34.4204 20.0197C34.7233 20.3327 35.0753 20.5815 35.4765 20.7661C35.8858 20.9427 36.3197 21.031 36.7782 21.031C37.2367 21.031 37.6665 20.9467 38.0676 20.7782C38.477 20.6096 38.8331 20.3728 39.136 20.0678C39.4389 19.7628 39.6764 19.3936 39.8483 18.9602C40.0284 18.5268 40.1185 18.0492 40.1185 17.5275Z" fill="#519CE4"/>
<path d="M73.6933 22.5841C73.4232 22.8249 73.1325 23.0536 72.8214 23.2703C72.5185 23.479 72.1992 23.6636 71.8636 23.8242C71.5279 23.9767 71.18 24.0971 70.8197 24.1854C70.4677 24.2817 70.1075 24.3298 69.7391 24.3298C68.9286 24.3298 68.1672 24.1894 67.4549 23.9084C66.7427 23.6275 66.1164 23.2302 65.5761 22.7165C65.0439 22.1948 64.6223 21.5647 64.3112 20.8263C64.0083 20.0799 63.8568 19.2451 63.8568 18.3221V11.1947H67.1971V18.3221C67.1971 18.7555 67.2625 19.1448 67.3935 19.4899C67.5327 19.827 67.7169 20.112 67.9462 20.3447C68.1754 20.5775 68.4415 20.7541 68.7444 20.8745C69.0555 20.9949 69.387 21.0551 69.7391 21.0551C70.0829 21.0551 70.4063 20.9788 70.7092 20.8263C71.0203 20.6658 71.2905 20.4571 71.5197 20.2003C71.749 19.9434 71.9291 19.6545 72.0601 19.3334C72.1911 19.0043 72.2565 18.6672 72.2565 18.3221V11.1947H75.6091V24.3298L73.6933 22.5841Z" fill="#519CE4"/>
<path d="M95.7739 7.69119C95.7739 7.9962 95.7124 8.28113 95.5896 8.546C95.475 8.81087 95.3154 9.04364 95.1107 9.24429C94.906 9.43693 94.6645 9.59344 94.3862 9.71384C94.116 9.8262 93.8254 9.88239 93.5143 9.88239C93.2032 9.88239 92.9084 9.8262 92.6301 9.71384C92.3599 9.59344 92.1225 9.43693 91.9178 9.24429C91.7214 9.04364 91.5617 8.81087 91.4389 8.546C91.3243 8.28113 91.267 7.9962 91.267 7.69119C91.267 7.39422 91.3243 7.1133 91.4389 6.84843C91.5617 6.57553 91.7214 6.34277 91.9178 6.15013C92.1225 5.94948 92.3599 5.79296 92.6301 5.68059C92.9084 5.5602 93.2032 5.5 93.5143 5.5C93.8254 5.5 94.116 5.5602 94.3862 5.68059C94.6645 5.79296 94.906 5.94948 95.1107 6.15013C95.3154 6.34277 95.475 6.57553 95.5896 6.84843C95.7124 7.1133 95.7739 7.39422 95.7739 7.69119ZM95.1967 24.089H91.8196V11.1947H95.1967V24.089Z" fill="#519CE4"/>
<path d="M111.929 22.3192C111.11 23.0095 110.193 23.5392 109.178 23.9084C108.163 24.2777 107.111 24.4623 106.022 24.4623C105.187 24.4623 104.381 24.3539 103.603 24.1372C102.833 23.9285 102.109 23.6315 101.429 23.2463C100.758 22.853 100.144 22.3834 99.5871 21.8376C99.0304 21.2919 98.5515 20.6899 98.1503 20.0317C97.7574 19.3655 97.4504 18.6552 97.2293 17.9007C97.0165 17.1382 96.91 16.3476 96.91 15.5289C96.91 14.7102 97.0165 13.9196 97.2293 13.1571C97.4504 12.3946 97.7574 11.6843 98.1503 11.0261C98.5515 10.36 99.0304 9.75397 99.5871 9.20818C100.144 8.66238 100.758 8.19686 101.429 7.81159C102.109 7.4183 102.833 7.11731 103.603 6.90863C104.381 6.69191 105.187 6.58356 106.022 6.58356C107.111 6.58356 108.163 6.76816 109.178 7.13738C110.193 7.49856 111.11 8.0283 111.929 8.72659L110.062 11.7365C109.546 11.1907 108.937 10.7733 108.232 10.4844C107.528 10.1874 106.792 10.0389 106.022 10.0389C105.244 10.0389 104.516 10.1834 103.836 10.4723C103.157 10.7613 102.563 11.1546 102.055 11.6522C101.548 12.1418 101.147 12.7237 100.852 13.3979C100.557 14.0641 100.41 14.7745 100.41 15.5289C100.41 16.2834 100.557 16.9937 100.852 17.6599C101.147 18.3181 101.548 18.896 102.055 19.3936C102.563 19.8913 103.157 20.2845 103.836 20.5735C104.516 20.8624 105.244 21.0069 106.022 21.0069C106.792 21.0069 107.528 20.8624 108.232 20.5735C108.937 20.2765 109.546 19.8551 110.062 19.3093L111.929 22.3192Z" fill="#519CE4"/>
<path d="M122.717 22.5841C122.447 22.8249 122.157 23.0536 121.845 23.2703C121.543 23.479 121.223 23.6636 120.888 23.8242C120.552 23.9767 120.204 24.0971 119.844 24.1854C119.492 24.2817 119.132 24.3298 118.763 24.3298C117.953 24.3298 117.191 24.1894 116.479 23.9084C115.767 23.6275 115.14 23.2302 114.6 22.7165C114.068 22.1948 113.646 21.5647 113.335 20.8263C113.032 20.0799 112.881 19.2451 112.881 18.3221V11.1947H116.221V18.3221C116.221 18.7555 116.287 19.1448 116.418 19.4899C116.557 19.827 116.741 20.112 116.97 20.3447C117.199 20.5775 117.465 20.7541 117.768 20.8745C118.08 20.9949 118.411 21.0551 118.763 21.0551C119.107 21.0551 119.43 20.9788 119.733 20.8263C120.044 20.6658 120.315 20.4571 120.544 20.2003C120.773 19.9434 120.953 19.6545 121.084 19.3334C121.215 19.0043 121.281 18.6672 121.281 18.3221V11.1947H124.633V24.3298L122.717 22.5841Z" fill="#519CE4"/>
<path d="M132.18 20.9347C132.311 20.9748 132.442 21.0029 132.573 21.019C132.704 21.027 132.835 21.031 132.966 21.031C133.293 21.031 133.608 20.9869 133.911 20.8986C134.214 20.8103 134.496 20.6859 134.758 20.5253C135.029 20.3568 135.266 20.1561 135.471 19.9234C135.684 19.6826 135.856 19.4177 135.987 19.1287L138.443 21.5487C138.131 21.9821 137.771 22.3714 137.362 22.7165C136.961 23.0617 136.523 23.3546 136.048 23.5954C135.581 23.8362 135.086 24.0168 134.562 24.1372C134.046 24.2656 133.514 24.3298 132.966 24.3298C132.04 24.3298 131.169 24.1613 130.35 23.8242C129.539 23.4871 128.827 23.0175 128.213 22.4155C127.607 21.8136 127.128 21.0992 126.776 20.2725C126.424 19.4378 126.248 18.5228 126.248 17.5275C126.248 16.5081 126.424 15.5771 126.776 14.7343C127.128 13.8916 127.607 13.1732 128.213 12.5792C128.827 11.9853 129.539 11.5238 130.35 11.1947C131.169 10.8656 132.04 10.7011 132.966 10.7011C133.514 10.7011 134.05 10.7653 134.574 10.8937C135.098 11.0221 135.594 11.2067 136.06 11.4475C136.535 11.6883 136.977 11.9853 137.386 12.3385C137.796 12.6836 138.156 13.0729 138.467 13.5063L132.18 20.9347ZM133.899 14.1564C133.743 14.1002 133.588 14.0641 133.432 14.0481C133.285 14.032 133.129 14.024 132.966 14.024C132.507 14.024 132.073 14.1083 131.664 14.2768C131.263 14.4373 130.911 14.6701 130.608 14.9751C130.313 15.2801 130.08 15.6493 129.908 16.0827C129.736 16.5081 129.65 16.9897 129.65 17.5275C129.65 17.6479 129.654 17.7843 129.662 17.9368C129.679 18.0893 129.699 18.2459 129.724 18.4064C129.756 18.5589 129.793 18.7074 129.834 18.8518C129.875 18.9963 129.928 19.1247 129.994 19.2371L133.899 14.1564Z" fill="#519CE4"/>
</g>
<path id="Union" fill-rule="evenodd" clip-rule="evenodd" d="M45.1914 24.0892H48.5317V15.9023C48.5317 15.6775 48.5767 15.4648 48.6667 15.2642C48.7486 15.0635 48.8673 14.8869 49.0229 14.7344C49.1784 14.5819 49.3585 14.4656 49.5632 14.3853C49.7679 14.297 49.9848 14.2529 50.2141 14.2529C50.4433 14.2529 50.6602 14.297 50.8649 14.3853C51.0614 14.4656 51.2374 14.5819 51.393 14.7344C51.5403 14.8869 51.659 15.0635 51.7491 15.2642C51.831 15.4648 51.8719 15.6775 51.8719 15.9023V24.0892H53.4484H53.5667H55.1432V15.9023C55.1432 15.6775 55.1842 15.4648 55.266 15.2642C55.3561 15.0635 55.4748 14.8869 55.6222 14.7344C55.7777 14.5819 55.9537 14.4656 56.1502 14.3853C56.3549 14.297 56.5718 14.2529 56.8011 14.2529C57.0303 14.2529 57.2472 14.297 57.4519 14.3853C57.6566 14.4656 57.8367 14.5819 57.9923 14.7344C58.1478 14.8869 58.2665 15.0635 58.3484 15.2642C58.4384 15.4648 58.4835 15.6775 58.4835 15.9023V24.0892H61.8237V15.9023C61.8237 15.22 61.6927 14.5779 61.4307 13.9759C61.1688 13.374 60.8085 12.8523 60.3501 12.4108C59.8998 11.9613 59.3677 11.6082 58.7536 11.3513C58.1478 11.0945 57.4969 10.9661 56.8011 10.9661C56.4981 10.9661 56.1911 10.9942 55.88 11.0503C55.5689 11.0985 55.266 11.1828 54.9713 11.3032C54.6848 11.4236 54.4105 11.5801 54.1485 11.7727C53.9114 11.9471 53.6977 12.1543 53.5076 12.3944C53.3174 12.1543 53.1037 11.9471 52.8666 11.7727C52.6046 11.5801 52.3304 11.4236 52.0438 11.3032C51.7491 11.1828 51.4462 11.0985 51.1351 11.0503C50.824 10.9942 50.517 10.9661 50.2141 10.9661C49.5182 10.9661 48.8673 11.0945 48.2615 11.3513C47.6475 11.6082 47.1153 11.9613 46.665 12.4108C46.2066 12.8523 45.8464 13.374 45.5844 13.9759C45.3224 14.5779 45.1914 15.22 45.1914 15.9023V24.0892Z" fill="#519CE4"/>
<path id="Union_2" fill-rule="evenodd" clip-rule="evenodd" d="M83.7281 10.939C86.9379 10.939 89.5471 13.529 89.6003 16.6634V24.089H86.244V16.5981C86.1875 15.2871 85.0791 14.2413 83.7281 14.2413C82.3771 14.2413 81.2752 15.2871 81.2187 16.5981L81.2123 24.089H77.856V16.6634C77.9092 13.529 80.5184 10.939 83.7281 10.939Z" fill="#519CE4"/>
</g>
</g>
</svg>
