<svg width="697" height="109" viewBox="0 0 697 109" fill="none" xmlns="http://www.w3.org/2000/svg">
<path d="M600.66 99.2222C600.2 100.579 599.539 101.44 599.098 101.954C598.015 103.164 596.582 103.805 593.734 105.107C591.861 105.987 589.895 106.665 587.875 107.16C585.909 107.71 583.889 107.985 581.813 107.985C577.276 107.985 572.996 107.178 569.009 105.583C565.023 103.989 561.496 101.715 558.484 98.7823C555.508 95.8125 553.138 92.2011 551.393 87.9847C549.703 83.7317 548.84 78.9654 548.84 73.6858V33.0254H567.577V73.7041C567.577 76.1789 567.944 78.3971 568.679 80.3769C569.45 82.3018 570.497 83.9333 571.783 85.2532C573.069 86.5731 574.557 87.5814 576.265 88.278C578.01 88.9563 579.866 89.3046 581.85 89.3046C583.833 89.3046 585.597 88.8646 587.287 88.003C589.032 87.0864 590.538 85.8949 591.824 84.4283C593.11 82.9617 594.12 81.3119 594.855 79.4787C595.59 77.6088 595.957 75.6839 595.957 73.7041V33.0254H614.749V108.003C613.922 108.168 609.734 108.902 605.693 106.225C602.001 103.787 600.917 100.139 600.678 99.2222H600.66Z" fill="#3B8BD8"/>
<path d="M326.361 99.2222C325.902 100.579 325.24 101.44 324.799 101.954C323.716 103.164 322.283 103.805 319.436 105.107C317.562 105.987 315.596 106.665 313.576 107.16C311.61 107.71 309.59 107.985 307.514 107.985C302.977 107.985 298.697 107.178 294.711 105.583C290.724 103.989 287.197 101.715 284.185 98.7823C281.209 95.8125 278.839 92.2011 277.094 87.9847C275.404 83.7317 274.541 78.9654 274.541 73.6858V33.0254H293.278V73.7041C293.278 76.1789 293.645 78.3971 294.38 80.3769C295.151 82.3018 296.198 83.9333 297.484 85.2532C298.77 86.5731 300.258 87.5814 301.966 88.278C303.712 88.9563 305.567 89.3046 307.551 89.3046C309.535 89.3046 311.298 88.8646 312.988 88.003C314.733 87.0864 316.239 85.8949 317.525 84.4283C318.811 82.9617 319.821 81.3119 320.556 79.4787C321.291 77.6088 321.658 75.6839 321.658 73.7041V33.0254H340.45V108.003C339.624 108.168 335.435 108.902 331.394 106.225C327.702 103.787 326.618 100.139 326.379 99.2222H326.361Z" fill="#3B8BD8"/>
<path d="M84.0336 95.9893C79.4529 99.9288 74.3225 102.952 68.6423 105.059C62.9622 107.166 57.076 108.22 50.9836 108.22C46.3113 108.22 41.7992 107.602 37.4475 106.365C33.1416 105.174 29.0877 103.479 25.2857 101.28C21.5295 99.0355 18.0939 96.3558 14.979 93.2409C11.8641 90.126 9.18438 86.6904 6.93982 82.9342C4.74106 79.1322 3.02329 75.0783 1.78649 70.7724C0.595496 66.4207 0 61.9087 0 57.2363C0 52.564 0.595496 48.0519 1.78649 43.7002C3.02329 39.3485 4.74106 35.2946 6.93982 31.5384C9.18438 27.7364 11.8641 24.2779 14.979 21.163C18.0939 18.0481 21.5295 15.3913 25.2857 13.1925C29.0877 10.948 33.1416 9.23019 37.4475 8.03919C41.7992 6.8024 46.3113 6.18399 50.9836 6.18399C57.076 6.18399 62.9622 7.23756 68.6423 9.3447C74.3225 11.406 79.4529 14.4293 84.0336 18.4146L73.5895 35.5923C70.7037 32.4774 67.291 30.0954 63.3516 28.4464C59.4122 26.7515 55.2895 25.9041 50.9836 25.9041C46.6319 25.9041 42.555 26.7286 38.753 28.3777C34.951 30.0267 31.63 32.2713 28.7899 35.1113C25.9499 37.9056 23.7053 41.2266 22.0562 45.0745C20.4072 48.8765 19.5827 52.9304 19.5827 57.2363C19.5827 61.5422 20.4072 65.5962 22.0562 69.3982C23.7053 73.1544 25.9499 76.4525 28.7899 79.2926C31.63 82.1326 34.951 84.3772 38.753 86.0262C42.555 87.6753 46.6319 88.4998 50.9836 88.4998C55.2895 88.4998 59.4122 87.6753 63.3516 86.0262C67.291 84.3314 70.7037 81.9265 73.5895 78.8116L84.0336 95.9893Z" fill="#3B8BD8"/>
<path d="M160.613 68.6423C160.613 74.1392 159.629 79.2697 157.659 84.0336C155.689 88.7518 153.009 92.8515 149.62 96.3329C146.23 99.7685 142.245 102.494 137.664 104.51C133.129 106.479 128.251 107.464 123.029 107.464C117.852 107.464 112.974 106.479 108.393 104.51C103.858 102.494 99.8729 99.7685 96.4373 96.3329C93.0476 92.8515 90.3679 88.7518 88.3981 84.0336C86.4284 79.2697 85.4436 74.1392 85.4436 68.6423C85.4436 63.0538 86.4284 57.8776 88.3981 53.1136C90.3679 48.3497 93.0476 44.2499 96.4373 40.8144C99.8729 37.333 103.858 34.6075 108.393 32.6377C112.974 30.668 117.852 29.6832 123.029 29.6832C128.251 29.6832 133.129 30.6222 137.664 32.5003C142.245 34.3326 146.23 36.9665 149.62 40.4021C153.009 43.7918 155.689 47.8916 157.659 52.7014C159.629 57.4653 160.613 62.779 160.613 68.6423ZM141.718 68.6423C141.718 65.6191 141.214 62.8935 140.206 60.4657C139.244 57.9921 137.916 55.885 136.221 54.1443C134.526 52.3578 132.534 51.0065 130.243 50.0904C127.999 49.1284 125.594 48.6474 123.029 48.6474C120.463 48.6474 118.036 49.1284 115.745 50.0904C113.501 51.0065 111.531 52.3578 109.836 54.1443C108.187 55.885 106.881 57.9921 105.919 60.4657C104.958 62.8935 104.477 65.6191 104.477 68.6423C104.477 71.4824 104.958 74.1163 105.919 76.5441C106.881 78.9719 108.187 81.079 109.836 82.8655C111.531 84.652 113.501 86.072 115.745 87.1256C118.036 88.1334 120.463 88.6373 123.029 88.6373C125.594 88.6373 127.999 88.1563 130.243 87.1943C132.534 86.2324 134.526 84.8811 136.221 83.1404C137.916 81.3997 139.244 79.2926 140.206 76.819C141.214 74.3454 141.718 71.6198 141.718 68.6423Z" fill="#3B8BD8"/>
<path d="M453.122 12.5054C453.122 14.2461 452.778 15.8723 452.091 17.3839C451.45 18.8955 450.557 20.224 449.412 21.3691C448.266 22.4685 446.915 23.3618 445.358 24.0489C443.846 24.6902 442.22 25.0108 440.479 25.0108C438.738 25.0108 437.089 24.6902 435.532 24.0489C434.02 23.3618 432.692 22.4685 431.547 21.3691C430.447 20.224 429.554 18.8955 428.867 17.3839C428.226 15.8723 427.905 14.2461 427.905 12.5054C427.905 10.8105 428.226 9.20728 428.867 7.69564C429.554 6.13819 430.447 4.80977 431.547 3.7104C432.692 2.56521 434.02 1.67197 435.532 1.03067C437.089 0.343555 438.738 0 440.479 0C442.22 0 443.846 0.343555 445.358 1.03067C446.915 1.67197 448.266 2.56521 449.412 3.7104C450.557 4.80977 451.45 6.13819 452.091 7.69564C452.778 9.20728 453.122 10.8105 453.122 12.5054ZM449.892 106.09H430.997V32.5003H449.892V106.09Z" fill="#3B8BD8"/>
<path d="M543.513 95.9893C538.932 99.9288 533.802 102.952 528.121 105.059C522.441 107.166 516.555 108.22 510.463 108.22C505.79 108.22 501.278 107.602 496.927 106.365C492.621 105.174 488.567 103.479 484.765 101.28C481.009 99.0355 477.573 96.3558 474.458 93.2409C471.343 90.126 468.663 86.6904 466.419 82.9342C464.22 79.1322 462.502 75.0783 461.266 70.7724C460.075 66.4207 459.479 61.9087 459.479 57.2363C459.479 52.564 460.075 48.0519 461.266 43.7002C462.502 39.3485 464.22 35.2946 466.419 31.5384C468.663 27.7364 471.343 24.2779 474.458 21.163C477.573 18.0481 481.009 15.3913 484.765 13.1925C488.567 10.948 492.621 9.23019 496.927 8.03919C501.278 6.8024 505.79 6.18399 510.463 6.18399C516.555 6.18399 522.441 7.23756 528.121 9.3447C533.802 11.406 538.932 14.4293 543.513 18.4146L533.069 35.5923C530.183 32.4774 526.77 30.0954 522.831 28.4464C518.891 26.7515 514.769 25.9041 510.463 25.9041C506.111 25.9041 502.034 26.7286 498.232 28.3777C494.43 30.0267 491.109 32.2713 488.269 35.1113C485.429 37.9056 483.184 41.2266 481.535 45.0745C479.886 48.8765 479.062 52.9304 479.062 57.2363C479.062 61.5422 479.886 65.5962 481.535 69.3982C483.184 73.1544 485.429 76.4525 488.269 79.2926C491.109 82.1326 494.43 84.3772 498.232 86.0262C502.034 87.6753 506.111 88.4998 510.463 88.4998C514.769 88.4998 518.891 87.6753 522.831 86.0262C526.77 84.3314 530.183 81.9265 533.069 78.8116L543.513 95.9893Z" fill="#3B8BD8"/>
<path fill-rule="evenodd" clip-rule="evenodd" d="M170.104 106.09H188.793V59.3668C188.793 58.0842 189.045 56.8703 189.549 55.7252C190.007 54.58 190.671 53.5722 191.541 52.7019C192.412 51.8315 193.419 51.1673 194.565 50.7093C195.71 50.2054 196.924 49.9534 198.206 49.9534C199.489 49.9534 200.703 50.2054 201.848 50.7093C202.947 51.1673 203.932 51.8315 204.803 52.7019C205.627 53.5722 206.291 54.58 206.795 55.7252C207.253 56.8703 207.482 58.0842 207.482 59.3668V106.09H216.303H216.965H225.786V59.3668C225.786 58.0842 226.015 56.8703 226.473 55.7252C226.977 54.58 227.641 53.5722 228.466 52.7019C229.336 51.8315 230.321 51.1673 231.42 50.7093C232.566 50.2054 233.779 49.9534 235.062 49.9534C236.345 49.9534 237.559 50.2054 238.704 50.7093C239.849 51.1673 240.857 51.8315 241.727 52.7019C242.597 53.5722 243.262 54.58 243.72 55.7252C244.224 56.8703 244.475 58.0842 244.475 59.3668V106.09H263.165V59.3668C263.165 55.4732 262.432 51.8086 260.966 48.3731C259.5 44.9375 257.485 41.96 254.92 39.4406C252.4 36.8754 249.423 34.8599 245.987 33.3941C242.597 31.9282 238.956 31.1953 235.062 31.1953C233.367 31.1953 231.649 31.3556 229.909 31.6763C228.168 31.9511 226.473 32.4321 224.824 33.1192C223.221 33.8063 221.686 34.6996 220.22 35.799C218.894 36.794 217.698 37.9767 216.634 39.3471C215.57 37.9767 214.375 36.794 213.048 35.799C211.582 34.6996 210.048 33.8063 208.444 33.1192C206.795 32.4321 205.1 31.9511 203.36 31.6763C201.619 31.3556 199.901 31.1953 198.206 31.1953C194.313 31.1953 190.671 31.9282 187.281 33.3941C183.846 34.8599 180.868 36.8754 178.349 39.4406C175.784 41.96 173.768 44.9375 172.302 48.3731C170.836 51.8086 170.104 55.4732 170.104 59.3668V106.09Z" fill="#3B8BD8"/>
<path fill-rule="evenodd" clip-rule="evenodd" d="M385.723 31.041C403.683 31.041 418.282 45.8227 418.579 63.7108V106.09H399.8V63.3382C399.484 55.8566 393.282 49.888 385.723 49.888C378.164 49.888 371.998 55.8566 371.683 63.3382L371.647 106.09H352.867V63.7108C353.165 45.8227 367.764 31.041 385.723 31.041Z" fill="#3B8BD8"/>
<path d="M688.926 81.8312C684.003 92.0605 673.992 99.2833 662.199 99.2833C645.868 99.2833 632.643 85.626 632.643 68.7789C632.643 51.9317 645.887 38.2744 662.199 38.2744C668.775 38.2744 674.837 40.4926 679.741 44.2323C682.258 46.1388 682.442 49.8419 680.109 51.9867L641.644 87.2942" stroke="#3B8BD8" stroke-width="17.6897" stroke-miterlimit="10"/>
</svg>
