<svg width="34" height="38" viewBox="0 0 34 38" fill="none" xmlns="http://www.w3.org/2000/svg">
<path fill-rule="evenodd" clip-rule="evenodd" d="M2.97461 21.0006C2.97461 13.2548 9.25382 6.97559 16.9996 6.97559C24.7454 6.97559 31.0246 13.2548 31.0246 21.0006C31.0246 28.7464 24.7454 35.0256 16.9996 35.0256C9.25382 35.0256 2.97461 28.7464 2.97461 21.0006ZM18.4163 27.0215C18.4163 27.8039 17.782 28.4381 16.9996 28.4381C16.2172 28.4381 15.5829 27.8039 15.5829 27.0215C15.5829 26.239 16.2172 25.6048 16.9996 25.6048C17.782 25.6048 18.4163 26.239 18.4163 27.0215ZM15.7246 13.5631V23.4798H18.2746V13.5631H15.7246Z" fill="#A51A27"/>
</svg>
