<svg width="35" height="48" viewBox="0 0 35 48" fill="none" xmlns="http://www.w3.org/2000/svg">
<path opacity="0.4" d="M0.488031 47.3177V0.0823689H18.7351C26.3057 0.0823689 31.6763 5.38825 31.6763 12.8941C31.6763 16 29.9292 19.6235 27.4057 22.0177C27.7939 22.2118 28.1174 22.4706 28.5057 22.6647C32.1292 25.0588 34.6527 29.7177 34.6527 33.9882C34.6527 41.8177 29.3469 47.3177 21.7116 47.3177H0.488031ZM6.18215 42.2706H21.388C25.9174 42.2706 29.088 38.9706 29.088 34.1177C29.088 28.9412 25.9174 25.3824 21.388 25.3824H6.18215V42.2706ZM6.18215 20.4H19.3821C23.3939 20.2706 26.1116 17.2294 26.1116 13.0235C26.1116 8.36472 23.0057 5.12943 18.4763 5.12943H6.18215V20.4Z" fill="#67687E"/>
</svg>
