<svg width="50" height="50" viewBox="0 0 50 50" fill="none" xmlns="http://www.w3.org/2000/svg">
<g id="icon-link 1">
<rect width="50" height="50" fill="white"/>
<g id="Group">
<path id="Vector" d="M18.9126 27.2436C19.7074 28.6294 20.8109 29.8134 22.1375 30.7037C23.464 31.594 24.9779 32.1665 26.5616 32.3769C28.1453 32.5873 29.7561 32.4298 31.2691 31.9168C32.7821 31.4037 34.1565 30.5489 35.2855 29.4186L42.7876 21.9165C44.7375 19.9666 45.8329 17.322 45.8329 14.5644C45.8329 11.8068 44.7375 9.16222 42.7876 7.21232C40.8377 5.26243 38.1931 4.16699 35.4355 4.16699C32.6779 4.16699 30.0333 5.26243 28.0834 7.21232L23.8063 11.4894" stroke="#89E9E3" stroke-width="4.58333" stroke-linecap="round"/>
<path id="Vector_2" d="M31.0876 22.7562C30.2926 21.3705 29.1889 20.1867 27.8623 19.2966C26.5356 18.4066 25.0217 17.8342 23.438 17.6241C21.8544 17.4139 20.2436 17.5715 18.7307 18.0847C17.2178 18.5979 15.8436 19.4529 14.7147 20.5833L7.21257 28.0833C5.26268 30.0332 4.16724 32.6778 4.16724 35.4354C4.16724 38.1929 5.26268 40.8376 7.21257 42.7875C9.16246 44.7374 11.8071 45.8328 14.5647 45.8328C17.3222 45.8328 19.9668 44.7374 21.9167 42.7875L26.1938 38.5104" stroke="#71D1FF" stroke-width="4.58333" stroke-linecap="round"/>
</g>
</g>
</svg>
